<svg width="758" height="749" viewBox="0 0 758 749" fill="none" xmlns="http://www.w3.org/2000/svg">
<path fill-rule="evenodd" clip-rule="evenodd" d="M293.357 -260.244C322.888 -254.971 352.85 -249.621 384.822 -239.42C385.411 -239.227 386.045 -239.021 386.722 -238.801C432.09 -224.04 670.245 -146.555 741.493 135.077C813.804 420.91 635.649 666.798 375.211 732.684C114.774 798.571 -171.587 652.99 -241.982 374.729C-312.378 96.467 -127.657 -87.9878 -92.8394 -118.579C-82.7465 -127.929 -73.2182 -136.286 -63.9335 -144.43C-35.5332 -169.34 -9.41246 -192.251 23.6111 -235.43C44.0116 -263.534 59.2015 -299.471 47.8951 -375.817C98.5683 -339.141 158.698 -296.994 197.932 -282.817C230.54 -271.46 261.701 -265.896 293.357 -260.244ZM13.4699 489.009C-6.6451 404.903 52.2759 306.215 151.401 279.656C224.978 260.366 296.277 287.735 355.528 310.48C397.864 326.732 434.049 340.622 460.518 333.442C487.599 326.007 520.598 288.812 553.175 252.094L553.175 252.093C585.246 215.945 616.907 180.258 642.108 173.883C696.126 160.217 725.428 212.482 733.887 245.917C742.345 279.352 746.819 342.474 730.753 386.689C714.686 430.905 701.368 449.226 670.895 454.615C652.452 457.694 619.208 437.546 583.852 416.118C543.068 391.401 499.475 364.98 472.553 370.548C444.527 376.615 408.906 412.478 368.656 453C317.636 504.366 259.178 563.219 199.328 578.36C134.507 594.759 112.618 589.92 87.4108 581.41C49.2693 566.956 24.3904 536.515 13.424 488.827L13.4699 489.009ZM517.48 449.86C502.422 444.453 483.756 448.016 466.458 452.392L466.519 452.376C464.507 452.885 462.594 453.354 460.757 453.803C446.798 457.22 437.265 459.554 422.759 470.342C406.657 482.319 392.038 503.844 382.603 517.735L382.061 518.533C372.65 532.386 372.839 541.812 381.448 548.528C390.016 555.212 395.139 548.276 409.557 528.753L409.762 528.475C411.033 526.754 412.259 525.062 413.462 523.4C426.062 506.004 436.251 491.935 470.766 483.203C507.751 473.847 518.043 485.239 528.959 497.323C529.204 497.593 529.448 497.864 529.693 498.135L529.804 498.258C540.907 510.522 542.546 512.333 548.963 506.149C550.902 504.93 552.549 503.301 553.789 501.377C555.028 499.454 555.83 497.283 556.138 495.017C556.445 492.751 556.251 490.446 555.568 488.264C554.886 486.082 553.731 484.077 552.187 482.39L552.101 482.271C545.047 472.557 532.477 455.244 517.48 449.86ZM449.285 620.883C380.093 638.387 344.128 632.534 318.154 620.738L318.305 620.571C317.765 620.383 317.325 620.216 316.948 620.073C314.709 619.225 314.709 619.225 309.15 620.631C303.12 622.622 298.029 626.754 294.845 632.242C293.657 634.086 292.862 636.153 292.507 638.316C292.153 640.478 292.247 642.691 292.784 644.815C293.322 646.939 294.291 648.929 295.631 650.663C296.971 652.397 298.654 653.838 300.576 654.895C359.025 686.059 437.1 662.828 494.123 642.666C534.061 627.421 569.248 601.886 596.098 568.661C598.038 565.808 599.055 562.431 599.015 558.984C598.974 555.538 597.877 552.188 595.871 549.385C593.676 545.3 587.681 539.985 579.87 549.952C562.173 571.637 518.476 603.379 449.285 620.883Z" fill="url(#paint0_linear_94_789)" fill-opacity="0.548"/>
<defs>
<linearGradient id="paint0_linear_94_789" x1="1875.19" y1="-1535.77" x2="-354.567" y2="-562.114" gradientUnits="userSpaceOnUse">
<stop/>
<stop offset="1" stop-color="white" stop-opacity="0"/>
</linearGradient>
</defs>
</svg>
