<svg width="767" height="776" viewBox="0 0 666 776" fill="none" xmlns="http://www.w3.org/2000/svg">
<g clip-path="url(#clip0_94_302)">
<path d="M275.23 81.9442C305.951 103.504 342.413 128.271 366.26 136.522C404.572 149.286 439.679 149.228 479.955 161.496C504.35 169.111 652.851 212.93 695.703 382.318C738.556 551.707 628.959 698.441 469.985 738.658C311.012 778.875 137.138 693.657 95.4211 528.756C53.7045 363.856 167.04 253.568 188.386 235.258C213.508 212.556 232.896 199.593 259.839 165.392C272.389 148.621 281.796 127.221 275.23 81.9442ZM605.218 628.902C603.897 626.486 600.267 623.356 595.465 629.306C584.59 642.255 557.829 661.285 515.595 671.969C473.36 682.654 451.469 679.331 435.692 672.438L435.785 672.339C433.504 671.579 434.17 671.41 430.207 672.412C426.524 673.62 423.404 676.095 421.441 679.366C420.709 680.466 420.215 681.697 419.99 682.982C419.765 684.267 419.813 685.581 420.132 686.839C420.45 688.098 421.032 689.276 421.841 690.299C422.651 691.323 423.67 692.172 424.837 692.791C460.32 711.046 507.992 696.923 542.824 684.712C567.224 675.492 588.773 660.183 605.275 640.345C606.468 638.643 607.102 636.633 607.092 634.588C607.082 632.542 606.428 630.558 605.218 628.902ZM526.809 571.857C516.25 574.528 510.122 575.391 500.069 582.708C490.015 590.026 480.859 603.227 475.066 611.491C469.273 619.755 469.348 625.35 474.565 629.3C479.783 633.251 482.938 629.053 491.903 617.276C500.867 605.498 506.186 595.98 529.267 590.141C552.347 584.302 558.336 591.456 565.11 598.756C571.884 606.055 572.869 607.143 576.818 603.432C578.004 602.7 579.015 601.726 579.778 600.579C580.542 599.432 581.04 598.139 581.237 596.793C581.434 595.447 581.325 594.078 580.919 592.786C580.512 591.494 579.816 590.308 578.883 589.313C574.636 583.589 567.025 573.293 557.872 570.147C548.72 567.001 537.33 569.195 526.772 571.866L526.809 571.857ZM335.527 470.649C275.014 486.836 238.694 545.675 250.595 595.522L250.567 595.414C257.048 623.679 272.078 641.646 295.258 650.066C310.582 655.012 323.899 657.791 363.466 647.781C428.819 631.248 492.05 531.688 530.832 523.252C561.502 516.868 627.104 576.426 651.333 572.321C669.925 568.992 678.118 558.059 688.094 531.741C698.071 505.424 695.612 467.968 690.599 448.154C685.586 428.34 667.953 397.436 634.981 405.777C603.972 413.622 556.466 492.285 523.656 501.273C484.882 511.77 412.534 450.48 335.527 470.649Z" fill="url(#paint0_linear_94_302)" fill-opacity="0.192"/>
</g>
<defs>
<linearGradient id="paint0_linear_94_302" x1="1393.57" y1="-614.433" x2="36.5038" y2="-14.0242" gradientUnits="userSpaceOnUse">
<stop/>
<stop offset="1" stop-color="white" stop-opacity="0"/>
</linearGradient>
<clipPath id="clip0_94_302">
<rect width="618.016" height="684.422" fill="white" transform="translate(0 151.573) rotate(-14.197)"/>
</clipPath>
</defs>
</svg>
